# xmcd
#
# Track frame offsets: 
#        150
#        18525
#        34711
#        53839
#        71535
#        88023
#        101095
#        119233
#        136852
#        155010
#
# Disc length: 2325 seconds
#
# Revision: 0
# Processed by: cddbd v1.5PL3 Copyright (c) Steve Scherf et al.
# Submitted via: ExactAudioCopy v0.95a3
#
DISCID=8a09130a
DTITLE=Robert Cray - Strong Persuader
DYEAR=1900
DGENRE=
TTITLE0=Smoking Gun
TTITLE1=I guess I showed her
TTITLE2=Right next door (Because of me)
TTITLE3=Nothin´but a woman
TTITLE4=Still around
TTITLE5=More than I can stand
TTITLE6=Foul play
TTITLE7=I wonder
TTITLE8=Fantasized
TTITLE9=New blood
EXTD=
EXTT0=
EXTT1=
EXTT2=
EXTT3=
EXTT4=
EXTT5=
EXTT6=
EXTT7=
EXTT8=
EXTT9=
PLAYORDER=
